:SAMPLES-PER-SECOND 25
:FULLY-SPECIFIED
:DEGREES
565
root  4.74651 75.451 -41.0834 -0.284943 -7.46498 -2.79046
RightUpLeg  -2.63569 3.80522 8.31253
RightLeg  15.9442 -2.11913 -1.31262
RightFoot  -10.8103 -0.0775275 0.92705
RightToes  2.84633e-005 7.89722e-005 -0.000426369
Spine  4.86075 1.97617 2.96159
Spine1  9.85927 3.91086 3.15836
HEad  30.7193 1.8275 -22.85
LeftShoulder1  -3.88251e-019 0 -3.92111e-022
LeftArm  -35.6199 10.1044 -83.7875
LeftForeArm  22.9647 -0.559775 0.682781
LeftHand  -0.77115 -4.5907 9.24846
RightShoulder  7.45443e-017 -2.42657e-020 1.96277e-018
RightArm  -27.0105 -10.286 72.4277
RightForeArm  25.0733 3.40556 3.98196
RightHand  -1.48887 10.4507 -11.2537
LeftUpLeg  -23.2411 -1.01591 4.59446
LeftLeg  42.2889 9.49637 9.49793
LeftFoot  -11.2734 0.0635727 6.13067
LeftToes  3.91355e-005 3.11907e-005 -4.10385e-006
566
root  4.78848 75.4905 -40.7085 -0.107208 -6.54226 -2.06864
RightUpLeg  -2.23289 3.92836 7.55155
RightLeg  15.8395 -3.01815 -1.63394
RightFoot  -11.4111 -0.0768229 0.776373
RightToes  2.84633e-005 7.89722e-005 -0.000426369
Spine  4.42503 2.07484 2.5465
Spine1  9.0005 4.01826 2.96345
HEad  31.6695 0.709889 -22.2011
LeftShoulder1  -3.88251e-019 0 -3.92111e-022
LeftArm  -35.8632 10.3939 -83.7837
LeftForeArm  24.8281 0.943095 1.21211
LeftHand  -0.7812 -4.49714 9.44782
RightShoulder  7.45443e-017 -2.42657e-020 1.96277e-018
RightArm  -27.1633 -10.8444 72.0884
RightForeArm  24.3079 2.79365 3.62715
RightHand  -1.37717 10.021 -10.7182
LeftUpLeg  -23.7204 -2.90684 3.03244
LeftLeg  35.9887 8.4102 6.86992
LeftFoot  -10.0708 0.0117565 4.40348
LeftToes  3.91355e-005 3.11907e-005 -4.10385e-006
567
root  4.80897 75.5673 -40.292 0.134888 -6.1503 -1.26359
RightUpLeg  -1.43388 4.15071 6.75686
RightLeg  14.9079 -3.46613 -1.85599
RightFoot  -11.6081 -0.078397 -0.00962946
RightToes  2.84633e-005 7.89722e-005 -0.000426369
Spine  4.10237 2.18693 1.87329
Spine1  8.33542 4.21442 2.47853
HEad  32.2135 0.0797769 -21.4353
LeftShoulder1  -3.88251e-019 0 -3.92111e-022
LeftArm  -36.2061 10.291 -83.3799
LeftForeArm  24.854 2.30074 2.2245
LeftHand  -0.775703 -4.39604 9.47446
RightShoulder  7.45443e-017 -2.42657e-020 1.96277e-018
RightArm  -27.6991 -11.4773 72.3066
RightForeArm  24.0237 3.77932 3.92154
RightHand  -1.40178 9.6101 -11.1823
LeftUpLeg  -22.7863 -3.88876 1.68084
LeftLeg  27.1597 5.18739 3.22383
LeftFoot  -5.79426 -0.10758 2.98499
LeftToes  3.91355e-005 3.11907e-005 -4.10385e-006
568
root  4.80808 75.627 -39.7747 0.404907 -5.98716 -0.730938
RightUpLeg  -0.281388 4.4174 6.2697
RightLeg  13.7084 -3.92841 -2.10812
RightFoot  -12.0076 -0.0798932 0.299216
RightToes  2.84633e-005 7.89722e-005 -0.000426369
Spine  3.69104 2.18215 1.24939
Spine1  7.46847 4.23379 2.06947
HEad  32.642 -0.0915976 -20.2184
LeftShoulder1  -3.88251e-019 0 -3.92111e-022
LeftArm  -37.1083 10.873 -82.6602
LeftForeArm  23.4354 2.13012 2.71457
LeftHand  -0.790079 -4.24819 9.78527
RightShoulder  7.45443e-017 -2.42657e-020 1.96277e-018
RightArm  -27.3725 -12.0942 72.3988
RightForeArm  23.2959 4.73386 4.40785
RightHand  -1.49064 10.0338 -11.5526
LeftUpLeg  -20.8972 -4.59824 0.824027
LeftLeg  18.3199 1.94491 1.20443
LeftFoot  -1.93558 -0.0649871 0.921502
LeftToes  3.91355e-005 3.11907e-005 -4.10385e-006
569
root  4.81946 75.6556 -39.1449 0.713928 -6.09861 -0.283632
RightUpLeg  1.01793 3.8179 5.62024
RightLeg  12.3898 -3.2087 -1.96571
RightFoot  -12.4886 -0.0781332 0.626318
RightToes  2.84633e-005 7.89722e-005 -0.000426369
Spine  3.23626 2.21915 0.606018
Spine1  6.50841 4.36086 1.42175
HEad  33.3436 0.00676142 -18.6652
LeftShoulder1  -3.88251e-019 0 -3.92111e-022
LeftArm  -37.4179 12.2132 -81.7738
LeftForeArm  21.3251 2.19311 2.59229
LeftHand  -0.76687 -3.85351 9.88469
RightShoulder  7.45443e-017 -2.42657e-020 1.96277e-018
RightArm  -27.5015 -12.3283 72.7787
RightForeArm  23.3553 5.27564 4.76114
RightHand  -1.54635 10.1792 -11.8624
LeftUpLeg  -18.6737 -3.5407 -0.469046
LeftLeg  11.7507 -0.545601 1.24475
LeftFoot  0.625619 0.0511899 -0.529081
LeftToes  3.91355e-005 3.11907e-005 -4.10385e-006
570
root  4.80869 75.6332 -38.377 0.943481 -6.05118 -0.210258
RightUpLeg  2.85167 2.85381 5.32312
RightLeg  10.7687 -2.24417 -1.79541
RightFoot  -13.1206 -0.0592814 1.89378
RightToes  2.84633e-005 7.89722e-005 -0.000426369
Spine  2.71849 2.14368 0.237938
Spine1  5.44567 4.23845 0.872406
HEad  34.0741 -0.0176107 -17.1664
LeftShoulder1  -3.88251e-019 0 -3.92111e-022
LeftArm  -37.6891 13.8935 -80.8839
LeftForeArm  20.4493 2.18656 2.42367
LeftHand  -0.793476 -3.82639 10.246
RightShoulder  7.45443e-017 -2.42657e-020 1.96277e-018
RightArm  -27.4052 -12.9049 73.1976
RightForeArm  23.1511 5.82285 5.2159
RightHand  -1.46618 10.1261 -11.3072
LeftUpLeg  -16.6285 -1.72858 -1.14181
LeftLeg  8.22282 -1.13753 1.10359
LeftFoot  2.58694 0.191452 -1.67547
LeftToes  3.91355e-005 3.11907e-005 -4.10385e-006
571
root  4.81737 75.6097 -37.5218 1.17993 -5.9898 0.0763296
RightUpLeg  4.52278 1.94025 4.5898
RightLeg  9.67559 -1.15734 -1.5235
RightFoot  -13.5674 -0.0321087 3.07968
RightToes  2.84633e-005 7.89722e-005 -0.000426369
Spine  2.21768 2.07215 -0.0524096
Spine1  4.43254 4.11352 0.190387
HEad  35.0454 -0.313766 -15.5496
LeftShoulder1  -3.88251e-019 0 -3.92111e-022
LeftArm  -37.977 15.58 -80.1933
LeftForeArm  20.0022 1.81647 1.95069
LeftHand  -0.793849 -3.92063 10.1542
RightShoulder  7.45443e-017 -2.42657e-020 1.96277e-018
RightArm  -27.369 -13.8042 73.2361
RightForeArm  22.3908 6.78097 6.08668
RightHand  -1.52299 10.1515 -11.7093
LeftUpLeg  -15.5028 -1.75739 -1.79234
LeftLeg  7.98685 -0.697334 1.01427
LeftFoot  3.69109 -0.228375 1.56132
LeftToes  3.91355e-005 3.11907e-005 -4.10385e-006
572
root  4.8801 75.554 -36.5965 1.29633 -5.56826 0.456297
RightUpLeg  5.87538 0.971586 3.40676
RightLeg  9.58854 0.399848 -0.903511
RightFoot  -14.187 0.0327704 5.1862
RightToes  2.84633e-005 7.89722e-005 -0.000426369
Spine  1.75408 1.90543 -0.356697
Spine1  3.49581 3.79054 -0.534751
HEad  35.877 -0.690902 -14.0886
LeftShoulder1  -3.88251e-019 0 -3.92111e-022
LeftArm  -38.4183 16.4713 -79.521
LeftForeArm  20.6481 1.46928 1.88431
LeftHand  -0.787698 -4.01668 9.98117
RightShoulder  7.45443e-017 -2.42657e-020 1.96277e-018
RightArm  -27.0064 -14.876 73.5027
RightForeArm  21.693 7.80059 6.38119
RightHand  -1.52841 10.4595 -11.533
LeftUpLeg  -14.7406 -2.75225 -2.71782
LeftLeg  9.01841 -0.168277 1.29985
LeftFoot  3.58145 -0.571587 4.19659
LeftToes  3.91355e-005 3.11907e-005 -4.10385e-006
573
root  4.99002 75.5055 -35.5961 1.22003 -4.98219 0.707709
RightUpLeg  7.01189 0.415712 2.36899
RightLeg  10.871 1.803 -0.294291
RightFoot  -14.4953 0.102807 7.31382
RightToes  2.84633e-005 7.89722e-005 -0.000426369
Spine  1.40026 1.81869 -0.524903
Spine1  2.78231 3.6125 -0.921232
HEad  36.6439 -1.12222 -12.8179
LeftShoulder1  -3.88251e-019 0 -3.92111e-022
LeftArm  -38.329 16.594 -78.7381
LeftForeArm  21.5678 1.8839 1.61953
LeftHand  -0.80114 -3.72286 10.4554
RightShoulder  7.45443e-017 -2.42657e-020 1.96277e-018
RightArm  -27.3913 -15.9535 73.7829
RightForeArm  20.6435 8.90746 6.38068
RightHand  -1.42143 10.7049 -10.6043
LeftUpLeg  -13.948 -4.04065 -3.46094
LeftLeg  10.6555 0.645434 1.6048
LeftFoot  2.43286 -0.571106 4.60764
LeftToes  3.91355e-005 3.11907e-005 -4.10385e-006
574
root  5.13075 75.5118 -34.5705 0.928589 -4.53352 0.735392
RightUpLeg  7.97209 -0.172539 1.65035
RightLeg  12.8264 2.42558 0.247515
RightFoot  -13.9223 0.0966101 8.4482
RightToes  2.84633e-005 7.89722e-005 -0.000426369
Spine  1.21885 1.7768 -0.544873
Spine1  2.41352 3.51352 -0.913011
HEad  37.1767 -1.68846 -12.2596
LeftShoulder1  -3.88251e-019 0 -3.92111e-022
LeftArm  -38.4534 15.8575 -78.5476
LeftForeArm  21.7188 2.21358 1.6243
LeftHand  -0.804892 -3.64039 10.5921
RightShoulder  7.45443e-017 -2.42657e-020 1.96277e-018
RightArm  -27.1491 -16.9181 73.6165
RightForeArm  19.6962 9.9799 6.92381
RightHand  -1.41821 10.8059 -10.5212
LeftUpLeg  -12.6992 -4.71627 -3.89228
LeftLeg  12.1386 1.02951 1.50758
LeftFoot  0.85424 -0.563074 5.21824
LeftToes  3.91355e-005 3.11907e-005 -4.10385e-006
575
root  5.33545 75.5423 -33.5169 0.130371 -4.33207 0.773231
RightUpLeg  8.61259 -2.21432 0.28827
RightLeg  16.2968 4.33817 1.24305
RightFoot  -12.6409 0.0249934 9.80676
RightToes  2.84633e-005 7.89722e-005 -0.000426369
Spine  1.11427 1.70225 -0.595314
Spine1  2.18353 3.31191 -0.711914
HEad  38.1691 -1.84174 -12.309
LeftShoulder1  -3.88251e-019 0 -3.92111e-022
LeftArm  -38.411 15.5003 -79.2759
LeftForeArm  20.9944 2.19438 2.22273
LeftHand  -0.813937 -3.94426 10.3789
RightShoulder  7.45443e-017 -2.42657e-020 1.96277e-018
RightArm  -26.5987 -17.5719 73.0768
RightForeArm  20.048 10.1785 7.36078
RightHand  -1.59138 11.2116 -11.4734
LeftUpLeg  -10.3698 -4.62624 -4.61544
LeftLeg  12.6702 1.11768 1.42496
LeftFoot  -0.603751 -0.537145 5.75339
LeftToes  3.91355e-005 3.11907e-005 -4.10385e-006
576
root  5.5616 75.4614 -32.5269 -0.511749 -4.66905 0.822513
RightUpLeg  6.98246 -4.35495 -1.3218
RightLeg  23.5527 6.48433 2.87388
RightFoot  -10.1214 -0.181629 10.5537
RightToes  2.84633e-005 7.89722e-005 -0.000426369
Spine  0.981689 1.41423 -0.538309
Spine1  1.88069 2.61174 -0.0328908
HEad  38.7796 -0.874111 -12.6953
LeftShoulder1  -3.88251e-019 0 -3.92111e-022
LeftArm  -38.6965 15.8801 -80.4424
LeftForeArm  20.9364 2.19427 1.97097
LeftHand  -0.824506 -4.11249 10.3331
RightShoulder  7.45443e-017 -2.42657e-020 1.96277e-018
RightArm  -25.4407 -17.6467 72.1062
RightForeArm  20.0148 10.8628 7.22994
RightHand  -1.35796 10.3578 -10.362
LeftUpLeg  -8.69432 -4.8113 -5.31137
LeftLeg  14.0192 1.9675 1.58334
LeftFoot  -2.43329 -0.434689 5.76433
LeftToes  3.91355e-005 3.11907e-005 -4.10385e-006
577
root  5.80821 75.2061 -31.643 -1.01852 -5.22125 1.23356
RightUpLeg  2.7611 -6.55208 -3.50498
RightLeg  34.549 7.3617 5.17593
RightFoot  -5.28443 -0.674885 12.0795
RightToes  2.84633e-005 7.89722e-005 -0.000426369
Spine  0.873637 1.06397 -0.863959
Spine1  1.60971 1.75054 0.0019633
HEad  38.9138 0.44457 -12.5739
LeftShoulder1  -3.88251e-019 0 -3.92111e-022
LeftArm  -38.7719 15.9567 -81.2085
LeftForeArm  21.5974 2.18604 1.98941
LeftHand  -0.779174 -3.96142 9.93336
RightShoulder  7.45443e-017 -2.42657e-020 1.96277e-018
RightArm  -25.6345 -17.4317 71.6542
RightForeArm  20.1199 10.7997 7.29903
RightHand  -1.39862 10.395 -10.6206
LeftUpLeg  -7.983 -4.68257 -6.26388
LeftLeg  16.5944 2.71009 1.53303
LeftFoot  -4.85906 -0.333323 6.40715
LeftToes  3.91355e-005 3.11907e-005 -4.10385e-006
578
root  6.03278 74.8089 -30.8202 -1.89603 -6.5759 2.24442
RightUpLeg  -3.1633 -7.30438 -5.93209
RightLeg  47.4018 6.25878 6.91011
RightFoot  3.46448 -1.35916 10.7967
RightToes  2.84633e-005 7.89722e-005 -0.000426369
Spine  1.01055 0.928178 -1.37051
Spine1  1.84036 1.31149 -0.31885
HEad  38.6092 1.87582 -12.5795
LeftShoulder1  -3.88251e-019 0 -3.92111e-022
LeftArm  -38.4062 15.0721 -81.8806
LeftForeArm  22.3512 2.17048 2.31156
LeftHand  -0.785568 -4.30319 9.67583
RightShoulder  7.45443e-017 -2.42657e-020 1.96277e-018
RightArm  -25.7182 -16.8643 71.1939
RightForeArm  18.6592 10.9665 7.09081
RightHand  -1.68221 11.0613 -12.2124
LeftUpLeg  -7.13329 -3.33574 -7.84792
LeftLeg  19.2814 3.25713 1.62884
LeftFoot  -7.42712 -0.196197 7.03628
LeftToes  3.91355e-005 3.11907e-005 -4.10385e-006
579
root  6.19853 74.3498 -30.1036 -3.40472 -8.22903 3.56491
RightUpLeg  -9.4549 -5.8833 -7.73544
RightLeg  58.916 3.75513 6.18736
RightFoot  13.3078 -1.94673 9.32492
RightToes  2.84633e-005 7.89722e-005 -0.000426369
Spine  1.50168 0.458637 -1.87629
Spine1  2.82246 0.285441 -0.994349
HEad  37.4389 4.33815 -13.038
LeftShoulder1  -3.88251e-019 0 -3.92111e-022
LeftArm  -38.312 14.0631 -82.0526
LeftForeArm  23.5396 2.14751 2.18337
LeftHand  -0.806398 -4.02923 10.2004
RightShoulder  7.45443e-017 -2.42657e-020 1.96277e-018
RightArm  -25.5168 -15.0313 71.016
RightForeArm  18.9058 10.5213 7.19668
RightHand  -1.62471 10.7978 -11.9896
LeftUpLeg  -5.85889 -1.74469 -9.74864
LeftLeg  21.9133 3.9966 2.10889
LeftFoot  -9.99159 -0.0203772 6.69959
LeftToes  3.91355e-005 3.11907e-005 -4.10385e-006
